<svg width="58" height="45" viewBox="0 0 58 45" fill="none" xmlns="http://www.w3.org/2000/svg">

 <g>
  <title>Layer 1</title>
  <path id="svg_1" fill="#565656" d="m57.4842,34.4413c-1.133,1.4369 -3.9087,2.4619 -3.9087,2.4619l-20.6489,7.4558l0,-5.4985l15.1962,-5.4429c1.7244,-0.6211 1.9892,-1.4991 0.5875,-1.96c-1.3991,-0.4622 -3.9324,-0.3297 -5.6582,0.294l-10.1255,3.5849l0,-5.7064l0.5836,-0.1987c0,0 2.9259,-1.0409 7.0402,-1.4991c4.1142,-0.4555 9.1519,0.0623 13.1068,1.5693c4.4567,1.4157 4.9586,3.5028 3.827,4.9397zm-22.5921,-9.3629l0,-14.0615c0,-1.65139 -0.303,-3.1717 -1.8443,-3.6021c-1.1804,-0.38007 -1.9129,0.72175 -1.9129,2.37184l0,35.21336l-9.4471,-3.0141l0,-41.9859c4.0168,0.74956 9.8687,2.52148 13.0146,3.58755c8.0006,2.76118 10.7131,6.19777 10.7131,13.94095c0,7.5473 -4.6346,10.4078 -10.5234,7.5499zm-30.53858,13.2074c-4.57533,-1.2952 -5.33679,-3.9942 -3.25134,-5.5489c1.92735,-1.4355 5.20504,-2.5162 5.20504,-2.5162l13.54548,-4.8417l0,5.5198l-9.7474,3.5067c-1.72186,0.6211 -1.98666,1.5005 -0.58758,1.9613c1.40038,0.4609 3.93508,0.3298 5.65958,-0.2926l4.6754,-1.7057l0,4.9383c-0.2964,0.053 -0.6271,0.1059 -0.9327,0.1576c-4.6768,0.7681 -9.65786,0.4476 -14.56648,-1.1786zm50.12178,2.1864c0.5915,0 1.1461,0.2304 1.5637,0.6555c0.4176,0.4185 0.6482,0.9774 0.6482,1.5707c0,0.5959 -0.2306,1.1521 -0.6482,1.5706c-0.4176,0.4224 -0.9722,0.6529 -1.5637,0.6529c-0.5916,0 -1.1449,-0.2305 -1.5638,-0.6529c-0.4176,-0.4185 -0.6468,-0.9747 -0.6468,-1.5706c0,-1.2264 0.9906,-2.2262 2.2106,-2.2262zm-1.8391,2.2262c0,0.4939 0.191,0.9588 0.5388,1.3057c0.3465,0.3523 0.8102,0.543 1.3003,0.543c1.0157,0 1.839,-0.829 1.839,-1.8487c0,-0.4953 -0.1897,-0.9602 -0.5388,-1.3085c-0.3464,-0.3522 -0.8102,-0.5416 -1.3002,-0.5416c-0.4901,0 -0.9538,0.1894 -1.3003,0.5416c-0.3478,0.3483 -0.5388,0.8132 -0.5388,1.3085zm2.507,-1.1985c0.2424,0.1072 0.3649,0.3138 0.3649,0.6078c0,0.151 -0.0316,0.2781 -0.0962,0.3774c-0.0461,0.0716 -0.112,0.1298 -0.1857,0.1801c0.0579,0.0345 0.1093,0.0755 0.1475,0.1232c0.0527,0.0689 0.083,0.1788 0.087,0.3284l0.0118,0.3165c0.004,0.0848 0.0093,0.1497 0.0224,0.1894c0.0132,0.0583 0.0382,0.0954 0.0699,0.1073l0.0329,0.0159l0,0.0358l0,0.0542l0,0.0543l-0.054,0l-0.3913,0l-0.0316,0l-0.0158,-0.0278c-0.0132,-0.0264 -0.0224,-0.0569 -0.0316,-0.0966c-0.0066,-0.0358 -0.0132,-0.098 -0.0172,-0.1934l-0.0197,-0.3933c-0.0053,-0.1364 -0.0514,-0.2212 -0.1384,-0.2662c-0.054,-0.0251 -0.1436,-0.0371 -0.2648,-0.0371l-0.6705,0l0,0.9602l0,0.0543l-0.0554,0l-0.3188,0l-0.054,0l0,-0.0543l0,-2.3666l0,-0.0543l0.054,0l1.0895,0c0.1871,0 0.3439,0.0278 0.4651,0.0848l0,0zm-1.1804,0.9972l0.6824,0c0.137,0 0.2464,-0.0252 0.3241,-0.0769c0.0711,-0.0516 0.1054,-0.1456 0.1054,-0.282c0,-0.1484 -0.0488,-0.245 -0.1515,-0.2967c-0.0567,-0.0278 -0.1357,-0.0437 -0.2358,-0.0437l-0.7246,0l0,0.6993z" clip-rule="evenodd" fill-rule="evenodd"/>
  <text transform="matrix(0.953394 0 0 0.953394 2.09215 -0.236669)" stroke="#000" font-style="normal" font-weight="normal" xml:space="preserve" text-anchor="start" font-family="'Racing Sans One'" font-size="24" id="svg_2" y="15.99351" x="45.08989" stroke-width="0" fill="#565656">5</text>
 </g>
</svg>