<svg width="42" height="42" viewBox="0 0 42 42" fill="none" xmlns="http://www.w3.org/2000/svg">
 <defs>
  <clipPath id="clip0">
   <rect id="svg_1" fill="white" height="42" width="42"/>
  </clipPath>
 </defs>
 <g>
  <title>Layer 1</title>
  <g id="svg_2" clip-path="url(#clip0)">
   <path id="svg_3" fill="#565656" d="m18.9058,41.9136c-3.2352,-0.3096 -6.5106,-1.4709 -9.32438,-3.3057c-2.35783,-1.5375 -2.89028,-2.1695 -2.89028,-3.4308c0,-2.5337 2.78729,-6.9712 7.55616,-12.0301c2.7084,-2.873 6.4811,-6.2407 6.8891,-6.1495c0.793,0.1773 7.1341,6.3591 9.5079,9.2692c3.7538,4.6018 5.4795,8.3697 4.6028,10.0495c-0.6665,1.277 -4.8018,3.7727 -7.8399,4.7315c-2.5039,0.7903 -5.7924,1.1252 -8.5014,0.8659zm-15.39918,-9.3708c-1.95931,-3.0042 -2.94922,-5.9618 -3.42715,-10.2394c-0.15781,-1.4125 -0.10126,-2.2205 0.35836,-5.1197c0.57284,-3.6134 2.63176,-7.79368 5.10575,-10.36631c1.05368,-1.0957 1.14779,-1.1224 2.43217,-0.68996c1.55972,0.52514 3.22535,1.67487 5.80855,4.00937l1.5072,1.3621l-0.823,1.0106c-3.8205,4.691 -7.85366,11.3403 -9.37362,15.454c-0.82631,2.2364 -1.15959,4.4813 -0.80405,5.4159c0.24004,0.6311 0.01956,0.3958 -0.78421,-0.8366zm34.39188,0.511c0.1936,-0.9444 -0.0512,-2.6788 -0.625,-4.428c-1.2426,-3.7884 -5.3959,-10.8361 -9.2098,-15.6278l-1.2005,-1.5084l1.2988,-1.1921c1.696,-1.55637 2.8735,-2.48833 4.144,-3.27977c1.0026,-0.62454 2.4353,-1.17741 3.0512,-1.17741c0.3797,0 1.7164,1.38643 2.7954,2.89947c1.6713,2.34341 2.9008,5.18411 3.5237,8.14131c0.4025,1.9107 0.436,6.0007 0.0648,7.9068c-0.3046,1.5642 -0.9478,3.5932 -1.5752,4.9693c-0.4702,1.0311 -1.6395,3.0336 -2.1519,3.6852c-0.2634,0.335 -0.2637,0.3343 -0.1155,-0.3886l0,0zm-18.6463,-27.92885c-1.7597,-0.89312 -4.4744,-1.85183 -5.974,-2.10976c-0.5257,-0.09043 -1.4225,-0.14086 -1.9929,-0.11207c-1.2372,0.06245 -1.182,-0.00222 0.8029,-0.93945c1.6501,-0.7792 3.0266,-1.2374 4.8952,-1.62953c2.102,-0.44112 6.053,-0.4463 8.1215,-0.01064c2.2342,0.47054 4.8651,1.44903 6.3475,2.36082l0.4406,0.271l-1.0109,-0.05102c-2.0088,-0.10139 -4.9364,0.70973 -8.0795,2.23852c-0.9481,0.46113 -1.7729,0.82941 -1.8329,0.81842c-0.06,-0.011 -0.8329,-0.38733 -1.7175,-0.83629l0,0z"/>
  </g>
  <text transform="matrix(0.478999 0 0 0.58079 16.6584 15.7221)" stroke="#000" xml:space="preserve" text-anchor="start" font-family="sans-serif" font-size="24" id="svg_4" y="37.80356" x="-10.24913" stroke-width="0" fill="#ffffff">S/X</text>
 </g>
</svg>